<?xml version="1.0" encoding="utf-8"?>
<!-- Generator: Adobe Illustrator 22.0.1, SVG Export Plug-In . SVG Version: 6.00 Build 0)  -->
<svg version="1.1" id="Layer_2_1_" xmlns="http://www.w3.org/2000/svg" xmlns:xlink="http://www.w3.org/1999/xlink" x="0px" y="0px"
	 width="500px" height="500px" viewBox="0 0 500 500" enable-background="new 0 0 500 500" xml:space="preserve">
<path d="M9,9v480h480V9H9z M33,33h204v96H33V33z M33,153h204v144H33V153z M33,465V321h204v144H33z M465,465H261V321h204V465z
	 M465,297H261V153h204V297z M465,129H261V33h204V129z M183,69v24H87V69H183z M204,201v48H66v-48H204z M295,417v-48h136v48H295z
	 M315,93.4v-24h96v24H315z M303,212.1l41.5-5.8l18.5-36.1l18.5,36.1l41.5,5.8l-30,28.1l7.1,39.7L363,261.1l-37.1,18.7l7.1-39.7
	L303,212.1z M195,380.1l-30,28.1l7.1,39.7L135,429.1l-37.1,18.7l7.1-39.7l-30-28.1l41.5-5.8l18.5-36.1l18.5,36.1L195,380.1z"/>
</svg>
